<svg xmlns="http://www.w3.org/2000/svg" viewBox="0 0 143.21 24.42"><path fill="#939393" d="M21.27 16.27 13.87.43H.11v3.3h4.33v16.74H0v3.58h13.21v-3.58H8.92V5.38l8.77 18.55.06.12h4.17l8.23-18.32v14.74h-3.67v3.58h15.38v-3.42h-4.44V3.88h4.56V.43h-14l-6.71 15.84zM72.27 4.65C69.36 1.65 64.6 0 58.87 0s-10.5 1.64-13.42 4.62a10.59 10.59 0 0 0-3.1 7.77 10.91 10.91 0 0 0 4.74 8.74 19.42 19.42 0 0 0 11.54 3.29h.51c9.65-.13 16-4.82 16.21-12v-.22a10.5 10.5 0 0 0-3.08-7.55Zm-5.22 7.59v.21c0 2.74-1 8.57-8 8.67H59c-7 0-8-4.63-8.12-8.67-.06-2.16.28-5.15 2.23-7.11a7.83 7.83 0 0 1 5.76-2h.37c6.76.18 7.81 5.66 7.81 8.9ZM77.17.43v9.33h4.07l.14-1.71a3.86 3.86 0 0 1 1.39-3.16 5.88 5.88 0 0 1 4.12-1.1h2v16.74h-5.53V24h18.93v-3.4H96.5V3.79h1.61a7 7 0 0 1 3.46.66 3.42 3.42 0 0 1 2 2.73l.54 2.64h3.78V.46L77.38.43ZM130.53.46v3.42h4.76V15.3c0 2.75-.49 5.45-6.33 5.54-2.69 0-4.38-.4-5.44-1.44a5.89 5.89 0 0 1-1.42-4.4V3.88h4.64V.46h-16.12v3.42h4v10.25c0 3.33.83 5.76 2.54 7.43 1.93 1.9 5 2.79 9.62 2.79h.85c11.06-.22 12-4.3 12-9.21V3.8h3.62V.46Z"/></svg>